<svg width="21" height="18" viewBox="0 0 21 18" fill="none" xmlns="http://www.w3.org/2000/svg">
<path d="M20.6882 10.8327L18.2928 5.68955L19.3268 5.98687C19.5539 6.0522 19.7909 5.92071 19.8559 5.6929C19.921 5.46525 19.7899 5.2279 19.5628 5.16257L12.3731 3.09435C12.3746 3.06353 12.3755 3.03271 12.3755 3.00172C12.3756 2.14593 11.7993 1.39801 10.9731 1.18243C10.147 0.966676 9.27992 1.3377 8.86367 2.08479L1.67334 0.0167413C1.44625 -0.0485866 1.20931 0.0830742 1.14414 0.310717C1.07913 0.538359 1.21031 0.775717 1.4374 0.841045L2.85641 1.24926L0.286577 6.76695C0.115132 6.82709 0.000167325 6.98924 2.25058e-07 7.17148C-0.000501078 8.56364 0.836504 9.8186 2.12 10.3501C3.4035 10.8818 4.88017 10.585 5.86004 9.5985C6.5129 8.96046 6.88169 8.08557 6.88336 7.17148C6.88336 6.97952 6.75587 6.81101 6.57155 6.75891L4.18319 1.63101L8.62706 2.90909C8.62555 2.93991 8.62472 2.97073 8.62472 3.00189C8.62605 3.87444 9.22511 4.63174 10.0723 4.83174V13.3259H8.89158C7.94813 13.3259 7.16342 14.0848 7.16342 15.0308V15.2797C6.36953 15.4472 5.79955 16.147 5.79454 16.9604V17.5608C5.80172 17.8028 5.99773 17.9965 6.23936 18H14.7608C15.0024 17.9965 15.1984 17.8028 15.2056 17.5608V16.9604C15.2006 16.147 14.6306 15.4472 13.8367 15.2797V15.0308C13.8367 14.0848 13.0519 13.3259 12.1086 13.3259H10.9279V4.83174C11.4405 4.7103 11.8788 4.37897 12.1365 3.91849L16.9784 5.31131L14.4032 10.8407C14.2316 10.9009 14.1166 11.063 14.1165 11.2451C14.1161 12.6373 14.9531 13.8922 16.2366 14.4237C17.5201 14.9554 18.9966 14.6587 19.9765 13.6723C20.6294 13.0341 20.9983 12.1592 21 11.2451C20.9998 11.0531 20.8725 10.8848 20.6882 10.8327ZM3.4309 2.02231L5.61975 6.72206H1.24222L3.4309 2.02231ZM3.4309 9.73234C2.17097 9.73971 1.09334 8.82646 0.891146 7.5797H5.99021C5.77248 8.82545 4.69268 9.73384 3.4309 9.73234ZM14.3501 16.9604V17.1424H6.65009V16.9604C6.65009 16.4876 7.05113 16.1132 7.52269 16.1132H13.4775C13.949 16.1132 14.3501 16.4876 14.3501 16.9604ZM12.9812 15.0308V15.2556H8.01898V15.0308C8.01898 14.5579 8.42002 14.1835 8.89158 14.1835H12.1086C12.5801 14.1835 12.9812 14.5579 12.9812 15.0308ZM10.5001 4.02402C10.0651 4.02436 9.67778 3.7483 9.53525 3.3364C9.39271 2.9245 9.52622 2.46737 9.86778 2.19752C10.2095 1.92767 10.6842 1.90455 11.0503 2.14006C11.4165 2.37541 11.5934 2.81746 11.4913 3.24126C11.4805 3.26839 11.4724 3.29637 11.4673 3.32501C11.3281 3.74211 10.9387 4.02352 10.5001 4.02402ZM19.7364 10.7958H15.3589L17.5475 6.09609L19.7364 10.7958ZM17.5475 13.8061C16.2876 13.8135 15.21 12.9002 15.0078 11.6535H20.1068C19.8891 12.8992 18.8093 13.8076 17.5475 13.8061Z" fill="#FE5000"/>
</svg>
