<svg width="23" height="25" viewBox="0 0 23 25" fill="none" xmlns="http://www.w3.org/2000/svg">
<path d="M7.20356 10.4185L11.0713 12.2505L14.939 10.4185M11.0713 17.1438V12.356M11.4336 8.46788L14.6907 10.0964C14.8263 10.1638 14.9405 10.2677 15.0203 10.3965C15.1002 10.5252 15.1425 10.6737 15.1426 10.8251V14.7051C15.1425 14.8566 15.1002 15.005 15.0203 15.1338C14.9405 15.2625 14.8263 15.3664 14.6907 15.4338L11.4336 17.0623C11.3205 17.119 11.1958 17.1484 11.0693 17.1484C10.9428 17.1484 10.818 17.119 10.7049 17.0623L7.44786 15.4338C7.31234 15.3656 7.1986 15.2608 7.11947 15.1313C7.04033 15.0018 6.99896 14.8528 7.00002 14.701V10.8251C7.0001 10.6737 7.04244 10.5252 7.12227 10.3965C7.20211 10.2677 7.31627 10.1638 7.45193 10.0964L10.709 8.46788C10.8215 8.41193 10.9456 8.38281 11.0713 8.38281C11.197 8.38281 11.321 8.41193 11.4336 8.46788Z" stroke="#FE5000" stroke-width="1.5" stroke-linecap="round" stroke-linejoin="round"/>
<path d="M21 17.75V7.25L11.5009 2L2 7.25V17.75L11.5009 23L21 17.75Z" stroke="#FE5000" stroke-width="1.5" stroke-linejoin="round"/>
<circle cx="2" cy="18" r="2" fill="#FE5000"/>
<circle cx="21" cy="18" r="2" fill="#FE5000"/>
<circle cx="11" cy="23" r="2" fill="#FE5000"/>
<circle cx="2" cy="7" r="2" fill="#FE5000"/>
<circle cx="21" cy="7" r="2" fill="#FE5000"/>
<circle cx="11" cy="2" r="2" fill="#FE5000"/>
</svg>
