<svg width="22" height="22" viewBox="0 0 22 22" fill="none" xmlns="http://www.w3.org/2000/svg">
<path d="M7 13C6.44772 13 6 13.4477 6 14C6 14.5523 6.44772 15 7 15V13ZM15 9C15.5523 9 16 8.55228 16 8C16 7.44772 15.5523 7 15 7V9ZM10.2685 9.50771L11.1664 9.06756L10.2685 9.50771ZM11.7315 12.4923L12.6294 12.0521L11.7315 12.4923ZM12.4376 13.5967L13.0531 12.8086L13.0531 12.8086L12.4376 13.5967ZM14.5294 15C15.0817 15 15.5294 14.5523 15.5294 14C15.5294 13.4477 15.0817 13 14.5294 13V15ZM12.9622 13.8794L12.6312 14.823L12.6312 14.823L12.9622 13.8794ZM7.47059 7C6.9183 7 6.47059 7.44772 6.47059 8C6.47059 8.55228 6.9183 9 7.47059 9V7ZM9.03777 8.12061L8.70671 9.06422H8.70671L9.03777 8.12061ZM9.56242 8.40333L8.94686 9.19142L8.94687 9.19142L9.56242 8.40333ZM7 15C8.13294 15 9.05713 14.4608 9.79949 13.8189C10.5321 13.1854 11.1922 12.358 11.7798 11.626C12.3963 10.858 12.9403 10.1854 13.5087 9.69392C14.0673 9.21085 14.5411 9 15 9V7C13.8671 7 12.9429 7.53915 12.2005 8.18108C11.4679 8.81456 10.8078 9.64197 10.2202 10.374C9.60371 11.142 9.05975 11.8146 8.49133 12.3061C7.93267 12.7892 7.4589 13 7 13V15ZM9.37057 9.94787L10.8336 12.9324L12.6294 12.0521L11.1664 9.06756L9.37057 9.94787ZM10.8336 12.9324C11.0874 13.4501 11.3331 14.0029 11.822 14.3848L13.0531 12.8086C13.044 12.8014 13.0151 12.78 12.9489 12.671C12.8711 12.5431 12.7834 12.3663 12.6294 12.0521L10.8336 12.9324ZM14.5294 13C13.6351 13 13.4369 12.9862 13.2933 12.9358L12.6312 14.823C13.1751 15.0138 13.7925 15 14.5294 15V13ZM11.822 14.3848C12.0656 14.575 12.341 14.7212 12.6312 14.823L13.2933 12.9358C13.1929 12.9006 13.1127 12.8551 13.0531 12.8086L11.822 14.3848ZM7.47059 9C8.36489 9 8.5631 9.01384 8.70671 9.06422L9.36884 7.177C8.82489 6.98616 8.2075 7 7.47059 7V9ZM11.1664 9.06756C10.9126 8.54986 10.6669 7.9971 10.178 7.61524L8.94687 9.19142C8.95605 9.19859 8.9849 9.21997 9.05112 9.32897C9.12888 9.45694 9.21656 9.6337 9.37057 9.94787L11.1664 9.06756ZM8.70671 9.06422C8.80712 9.09945 8.88728 9.14488 8.94686 9.19142L10.178 7.61524C9.93437 7.42496 9.65898 7.2788 9.36883 7.177L8.70671 9.06422Z" fill="#FE5000"/>
<circle cx="11" cy="11" r="10" stroke="#FE5000" stroke-width="2"/>
</svg>
