<svg width="24" height="25" viewBox="0 0 24 25" fill="none" xmlns="http://www.w3.org/2000/svg">
<g id="fi_54476" clip-path="url(#clip0_26517_30354)">
<g id="Group">
<g id="_x34__2_">
<g id="Group_2">
<path id="Vector" d="M12 0.5C5.37224 0.5 0 5.87224 0 12.5C0 19.127 5.37224 24.5 12 24.5C18.6278 24.5 24 19.127 24 12.5C24 5.87224 18.6278 0.5 12 0.5ZM17.25 13.25H9.31051L12.4012 16.3407C12.6945 16.634 12.6945 17.1087 12.4012 17.4012C12.108 17.6945 11.6333 17.6945 11.3407 17.4012L7.098 13.1585C6.91875 12.9793 6.86251 12.7325 6.90373 12.5C6.86247 12.2675 6.91875 12.0207 7.09875 11.8407L11.3415 7.598C11.6347 7.30475 12.1095 7.30475 12.402 7.598C12.6953 7.89125 12.6953 8.366 12.402 8.65851L9.31051 11.75H17.25C17.664 11.75 18 12.086 18 12.5C18 12.914 17.664 13.25 17.25 13.25Z" fill="#FE5000"/>
</g>
</g>
</g>
</g>
<defs>
<clipPath id="clip0_26517_30354">
<rect width="24" height="24" fill="white" transform="translate(0 0.5)"/>
</clipPath>
</defs>
</svg>
