<svg width="20" height="20" viewBox="0 0 20 20" fill="none" xmlns="http://www.w3.org/2000/svg">
<path d="M19.9733 3.10449C20.039 2.90055 19.9808 2.6659 19.8286 2.51539L18.4222 1.10914C18.1933 0.880352 17.8223 0.880352 17.5935 1.10914C17.3646 1.33793 17.3646 1.70895 17.5935 1.93777L17.9995 2.34375H12.0889C11.8167 1.00812 10.6329 0 9.21793 0C7.80297 0 6.61914 1.00812 6.34691 2.34375H1.99899L2.40501 1.93773C2.63383 1.70895 2.63383 1.33793 2.40501 1.1091C2.17618 0.880313 1.80512 0.880313 1.5763 1.1091L0.169892 2.51535C-0.0566308 2.73363 -0.0566308 3.12578 0.169892 3.34398L1.5763 4.75023C1.69071 4.86465 1.84067 4.92188 1.99063 4.92188C2.14059 4.92188 2.29055 4.86465 2.40497 4.75023C2.6338 4.52145 2.6338 4.15043 2.40497 3.9216L1.99895 3.51562H6.34621C6.49609 4.26297 6.92902 4.91645 7.55613 5.34496C7.49308 5.5275 7.45996 5.72113 7.45996 5.91992V10.9745C6.12426 11.2468 5.11598 12.4305 5.11598 13.8453C5.11598 15.3756 5.7241 16.9247 6.78441 18.0954C7.89676 19.3236 9.35144 20 10.8805 20H12.7339C14.1429 20 15.4673 19.4514 16.463 18.4553C17.3726 17.5459 18.0078 15.8519 18.0078 14.3359V11.803C18.0078 10.843 17.2378 10.044 16.2915 10.022C16.0512 10.0162 15.8182 10.0583 15.6023 10.1437C15.523 9.8518 15.3686 9.58426 15.1488 9.36453C14.8166 9.03246 14.3752 8.84957 13.9058 8.84957C13.6806 8.84957 13.4618 8.89168 13.2584 8.97219C13.1791 8.68016 13.0247 8.41246 12.8048 8.19266C12.4726 7.86059 12.0312 7.6777 11.5619 7.6777C11.3592 7.6777 11.1616 7.71184 10.9759 7.77734V5.94363C10.9759 5.73473 10.9394 5.53348 10.8726 5.34617C11.4946 4.9173 11.9335 4.25719 12.0873 3.51559H17.9995L17.5935 3.9216C17.3646 4.15039 17.3646 4.52141 17.5935 4.75023C17.7079 4.86465 17.8578 4.92188 18.0078 4.92188C18.1578 4.92188 18.3078 4.86465 18.4222 4.75023L19.8286 3.34398C19.8948 3.27711 19.9454 3.19453 19.9733 3.10449ZM11.1476 9.02137C11.2584 8.91059 11.4055 8.84961 11.5619 8.84961C11.7182 8.84961 11.8653 8.91063 11.9761 9.02137C12.0869 9.13207 12.1478 9.27918 12.1478 9.43555V12.5605C12.1478 12.8841 12.4102 13.1465 12.7338 13.1465C13.0575 13.1465 13.3198 12.8841 13.3198 12.5605C13.3198 12.5605 13.3808 10.3039 13.4915 10.1932C13.6023 10.0825 13.7494 10.0215 13.9058 10.0215C14.0621 10.0215 14.2092 10.0825 14.32 10.1932C14.4308 10.3039 14.4917 10.4511 14.4917 10.6074V12.5605C14.4917 12.8841 14.7541 13.1465 15.0777 13.1465C15.4014 13.1465 15.6637 12.8841 15.6637 12.5605V11.7793C15.6637 11.6229 15.7247 11.4758 15.8355 11.3651C15.9499 11.2507 16.103 11.1901 16.264 11.1935C16.5792 11.2009 16.8357 11.4743 16.8357 11.803V14.3359C16.8357 15.5466 16.3304 16.9305 15.634 17.6268C14.8598 18.4015 13.8298 18.8281 12.7339 18.8281H10.8805C9.68664 18.8281 8.54043 18.2886 7.65308 17.3088C6.78551 16.3509 6.28793 15.0885 6.28793 13.8453C6.28793 13.0814 6.77789 12.4302 7.45992 12.1883V13.5587C7.45992 13.8823 7.72226 14.1446 8.0459 14.1446C8.36953 14.1446 8.63187 13.8823 8.63187 13.5587V5.91992C8.63187 5.76356 8.69285 5.61645 8.80363 5.5057C8.91472 5.39465 9.06132 5.33398 9.21797 5.33398C9.22269 5.33398 9.22746 5.33406 9.23218 5.33418C9.38863 5.33781 9.5305 5.40711 9.63382 5.51605C9.63507 5.51738 9.63632 5.51867 9.63757 5.51996C9.74027 5.6302 9.8039 5.78004 9.8039 5.94367V12.5605C9.8039 12.8841 10.0662 13.1465 10.3899 13.1465C10.7135 13.1465 10.9759 12.8841 10.9759 12.5605V9.43555C10.9759 9.27918 11.0369 9.13207 11.1476 9.02137ZM10.1364 4.42816C9.87961 4.26668 9.57976 4.17004 9.25957 4.16258C8.91175 4.15457 8.57926 4.24656 8.29234 4.42527C7.77832 4.10922 7.45992 3.55105 7.45992 2.92969C7.45992 1.96043 8.24855 1.17188 9.21789 1.17188C10.1872 1.17188 10.9759 1.96043 10.9759 2.92969C10.9759 3.54363 10.6485 4.1123 10.1364 4.42816Z" fill="#FE5000"/>
</svg>
