<svg width="22" height="20" viewBox="0 0 22 20" fill="none" xmlns="http://www.w3.org/2000/svg">
<path d="M1 8.5V18.5H6V8.5H1Z" stroke="#FE5000" stroke-width="1.5" stroke-linecap="round" stroke-linejoin="round"/>
<path d="M13 1.5L13.5303 0.96967C13.3894 0.828699 13.1981 0.749655 12.9987 0.750001C12.7993 0.750347 12.6083 0.830053 12.4678 0.971512L13 1.5ZM6 8.54872L5.46783 8.02024C5.32831 8.16074 5.25 8.35071 5.25 8.54872H6ZM18 18.5L18 19.25H18.5572L18.7181 18.7165L18 18.5ZM6 18.5H5.25C5.25 18.9142 5.58579 19.25 6 19.25L6 18.5ZM21 8.54872L21.7181 8.7652C21.7866 8.53804 21.7435 8.29188 21.602 8.10143C21.4605 7.91099 21.2373 7.79872 21 7.79872V8.54872ZM13.5 8.54872L12.7811 8.33512L12.4948 9.29872H13.5V8.54872ZM15 3.5L15.7189 3.7136C15.7973 3.4498 15.7249 3.16426 15.5303 2.96967L15 3.5ZM12.4678 0.971512L5.46783 8.02024L6.53217 9.07721L13.5322 2.02849L12.4678 0.971512ZM18 17.75L6 17.75L6 19.25L18 19.25L18 17.75ZM18.7181 18.7165L21.7181 8.7652L20.2819 8.33224L17.2819 18.2835L18.7181 18.7165ZM21 7.79872H13.5V9.29872H21V7.79872ZM14.2189 8.76232L15.7189 3.7136L14.2811 3.2864L12.7811 8.33512L14.2189 8.76232ZM15.5303 2.96967L13.5303 0.96967L12.4697 2.03033L14.4697 4.03033L15.5303 2.96967ZM6.75 18.5V8.54872H5.25V18.5H6.75Z" fill="#FE5000"/>
</svg>
